<svg width="24.000000" height="24.000000" viewBox="0 0 24 24" fill="none" xmlns="http://www.w3.org/2000/svg" xmlns:xlink="http://www.w3.org/1999/xlink">
	<desc>
			Created with Pixso.
	</desc>
	<defs>
		<clipPath id="clip22_1204">
			<rect id="Purchase" width="24.000000" height="24.000000" fill="white" fill-opacity="0"/>
		</clipPath>
	</defs>
	<rect id="Purchase" width="24.000000" height="24.000000" fill="rgb(249, 249, 249)" fill-opacity="1.000000"/>
	<g clip-path="url(#clip22_1204)">
		<path id="Vector" d="M3 4.5L21 4.5C21.39 4.5 21.77 4.65 22.06 4.93C22.34 5.22 22.5 5.6 22.5 6L22.5 18C22.5 18.39 22.34 18.77 22.06 19.06C21.77 19.34 21.39 19.5 21 19.5L3 19.5C2.6 19.5 2.22 19.34 1.93 19.06C1.65 18.77 1.5 18.39 1.5 18L1.5 6C1.5 5.6 1.65 5.22 1.93 4.93C2.22 4.65 2.6 4.5 3 4.5ZM21 8.25L21 6L3 6L3 8.25L21 8.25ZM3 9.75L3 18L21 18L21 9.75L3 9.75ZM4.5 15L12 15L12 16.5L4.5 16.5L4.5 15Z" fill="#2A254B" fill-opacity="1.000000" fill-rule="evenodd"/>
	</g>
</svg>
