<svg width="16.000000" height="16.000000" viewBox="0 0 16 16" fill="none" xmlns="http://www.w3.org/2000/svg" xmlns:xlink="http://www.w3.org/1999/xlink">
	<desc>
			Created with Pixso.
	</desc>
	<defs>
		<clipPath id="clip271_3289">
			<rect id="Checkmark--filled" width="16.000000" height="16.000000" fill="white" fill-opacity="0"/>
		</clipPath>
	</defs>
	<rect id="Checkmark--filled" width="16.000000" height="16.000000" fill="#FFFFFF" fill-opacity="0.000000"/>
	<g clip-path="url(#clip271_3289)">
		<path id="Vector" d="M8 1C6.61 1 5.26 1.41 4.11 2.17C2.95 2.94 2.06 4.04 1.53 5.32C1 6.6 0.86 8 1.13 9.36C1.4 10.72 2.07 11.97 3.05 12.94C4.02 13.92 5.27 14.59 6.63 14.86C7.99 15.13 9.39 14.99 10.67 14.46C11.95 13.93 13.05 13.04 13.82 11.88C14.58 10.73 15 9.38 15 8C15 6.14 14.26 4.36 12.94 3.05C11.63 1.73 9.85 1 8 1ZM7 10.79L4.5 8.29L5.29 7.5L7 9.2L10.7 5.5L11.5 6.29L7 10.79Z" fill="#FFFFFF" fill-opacity="1.000000" fill-rule="evenodd"/>
	</g>
</svg>
