<svg width="24.000000" height="24.000000" viewBox="0 0 24 24" fill="none" xmlns="http://www.w3.org/2000/svg" xmlns:xlink="http://www.w3.org/1999/xlink">
	<desc>
			Created with Pixso.
	</desc>
	<defs>
		<clipPath id="clip22_1198">
			<rect id="Checkmark--outline" width="24.000000" height="24.000000" fill="white" fill-opacity="0"/>
		</clipPath>
	</defs>
	<rect id="Checkmark--outline" width="24.000000" height="24.000000" fill="rgb(249, 249, 249)" fill-opacity="1.000000"/>
	<g clip-path="url(#clip22_1198)">
		<path id="Vector" d="M6.16 3.26C7.89 2.11 9.92 1.5 12 1.5C14.78 1.5 17.45 2.6 19.42 4.57C21.39 6.54 22.5 9.21 22.5 12C22.5 14.07 21.88 16.1 20.73 17.83C19.57 19.56 17.93 20.9 16.01 21.7C14.09 22.49 11.98 22.7 9.95 22.29C7.91 21.89 6.04 20.89 4.57 19.42C3.1 17.95 2.1 16.08 1.7 14.04C1.29 12.01 1.5 9.9 2.29 7.98C3.09 6.06 4.43 4.42 6.16 3.26ZM6.99 19.48C8.47 20.47 10.22 21 12 21C14.38 21 16.67 20.05 18.36 18.36C20.05 16.67 21 14.38 21 12C21 10.22 20.47 8.47 19.48 6.99C18.49 5.51 17.08 4.36 15.44 3.68C13.79 3 11.99 2.82 10.24 3.17C8.49 3.52 6.89 4.37 5.63 5.63C4.37 6.89 3.52 8.49 3.17 10.24C2.82 11.99 3 13.79 3.68 15.44C4.36 17.08 5.51 18.49 6.99 19.48ZM6.75 12.3L10.5 16.06L17.25 9.31L16.18 8.25L10.5 13.93L7.8 11.25L6.75 12.3Z" fill="#2A254B" fill-opacity="1.000000" fill-rule="evenodd"/>
	</g>
</svg>
