<svg width="24.000000" height="24.000000" viewBox="0 0 24 24" fill="none" xmlns="http://www.w3.org/2000/svg" xmlns:xlink="http://www.w3.org/1999/xlink">
	<desc>
			Created with Pixso.
	</desc>
	<defs>
		<clipPath id="clip22_1466">
			<rect id="Logo--facebook" width="24.000000" height="24.000000" fill="white" fill-opacity="0"/>
		</clipPath>
	</defs>
	<rect id="Logo--facebook" width="24.000000" height="24.000000" fill="rgb(42, 37, 75)" fill-opacity="1.000000"/>
	<g clip-path="url(#clip22_1466)">
		<path id="Vector" d="M20 3L3.99 3C3.73 3 3.48 3.1 3.29 3.29C3.1 3.48 3 3.73 3 3.99L3 20C3 20.26 3.1 20.51 3.29 20.7C3.48 20.89 3.73 20.99 3.99 21L12.61 21L12.61 14.04L10.27 14.04L10.27 11.31L12.61 11.31L12.61 9.31C12.61 6.98 14.03 5.72 16.11 5.72C16.81 5.72 17.51 5.72 18.2 5.82L18.2 8.25L16.77 8.25C15.64 8.25 15.42 8.79 15.42 9.57L15.42 11.31L18.12 11.31L17.77 14.03L15.42 14.03L15.42 21L20 21C20.26 20.99 20.51 20.89 20.7 20.7C20.89 20.51 20.99 20.26 21 20L21 3.99C20.99 3.73 20.89 3.48 20.7 3.29C20.51 3.1 20.26 3 20 3Z" fill="#FFFFFF" fill-opacity="1.000000" fill-rule="nonzero"/>
	</g>
</svg>
