<svg width="24.000000" height="24.000000" viewBox="0 0 24 24" fill="none" xmlns="http://www.w3.org/2000/svg" xmlns:xlink="http://www.w3.org/1999/xlink">
	<desc>
			Created with Pixso.
	</desc>
	<defs>
		<clipPath id="clip22_1468">
			<rect id="Logo--instagram" width="24.000000" height="24.000000" fill="white" fill-opacity="0"/>
		</clipPath>
	</defs>
	<rect id="Logo--instagram" width="24.000000" height="24.000000" fill="rgb(42, 37, 75)" fill-opacity="1.000000"/>
	<g clip-path="url(#clip22_1468)">
		<path id="Vector" d="M8.28 3.05C9.24 3.01 9.55 3 12 3C14.44 3 14.75 3.01 15.71 3.05C16.45 3.06 17.19 3.21 17.89 3.47C18.49 3.7 19.03 4.05 19.48 4.51C19.94 4.96 20.29 5.5 20.52 6.1C20.78 6.8 20.93 7.54 20.94 8.28C20.98 9.24 21 9.55 21 12C21 14.44 20.98 14.75 20.94 15.71C20.93 16.45 20.78 17.19 20.52 17.89C20.29 18.49 19.94 19.03 19.48 19.48C19.03 19.94 18.49 20.29 17.89 20.52C17.19 20.78 16.45 20.93 15.71 20.94C14.75 20.98 14.44 21 12 21C9.55 21 9.24 20.98 8.28 20.94C7.54 20.93 6.8 20.78 6.1 20.52C5.5 20.29 4.96 19.94 4.51 19.48C4.05 19.03 3.7 18.49 3.47 17.89C3.21 17.19 3.06 16.45 3.05 15.71C3.01 14.75 3 14.44 3 12C3 9.55 3.01 9.24 3.05 8.28C3.06 7.54 3.21 6.8 3.47 6.1C3.7 5.5 4.05 4.96 4.51 4.51C4.96 4.05 5.5 3.7 6.1 3.47C6.8 3.21 7.54 3.06 8.28 3.05ZM15.63 4.67C14.68 4.63 14.4 4.62 12 4.62C9.59 4.62 9.31 4.63 8.36 4.67C7.79 4.68 7.22 4.78 6.69 4.98C6.3 5.13 5.95 5.36 5.65 5.65C5.36 5.95 5.13 6.3 4.98 6.69C4.78 7.22 4.68 7.79 4.67 8.36C4.63 9.31 4.62 9.59 4.62 12C4.62 14.4 4.63 14.68 4.67 15.63C4.68 16.2 4.78 16.77 4.98 17.3C5.13 17.69 5.36 18.04 5.65 18.34C5.95 18.63 6.3 18.86 6.69 19.01C7.22 19.21 7.79 19.31 8.36 19.32C9.31 19.36 9.59 19.37 12 19.37C14.4 19.37 14.68 19.36 15.63 19.32C16.2 19.31 16.77 19.21 17.3 19.01C17.69 18.86 18.04 18.63 18.34 18.34C18.63 18.04 18.86 17.69 19.01 17.3C19.21 16.77 19.31 16.2 19.32 15.63C19.36 14.68 19.37 14.4 19.37 12C19.37 9.59 19.36 9.31 19.32 8.36C19.31 7.79 19.21 7.22 19.01 6.69C18.86 6.3 18.63 5.95 18.34 5.65C18.04 5.36 17.69 5.13 17.3 4.98C16.77 4.78 16.2 4.68 15.63 4.67ZM16.8 8.27C17.4 8.27 17.88 7.79 17.88 7.19C17.88 6.59 17.4 6.11 16.8 6.11C16.2 6.11 15.72 6.59 15.72 7.19C15.72 7.79 16.2 8.27 16.8 8.27ZM12 7.37C11.08 7.37 10.19 7.64 9.43 8.15C8.67 8.66 8.07 9.38 7.73 10.23C7.38 11.07 7.28 12 7.46 12.9C7.64 13.79 8.08 14.62 8.73 15.26C9.37 15.91 10.2 16.35 11.09 16.53C11.99 16.71 12.92 16.61 13.76 16.26C14.61 15.92 15.33 15.32 15.84 14.56C16.35 13.8 16.62 12.91 16.62 12C16.62 10.77 16.13 9.59 15.26 8.73C14.4 7.86 13.22 7.37 12 7.37ZM12 15C11.4 15 10.82 14.82 10.33 14.49C9.83 14.16 9.45 13.69 9.22 13.14C9 12.59 8.94 11.99 9.05 11.41C9.17 10.83 9.45 10.29 9.87 9.87C10.29 9.45 10.83 9.17 11.41 9.05C11.99 8.94 12.59 9 13.14 9.22C13.69 9.45 14.16 9.83 14.49 10.33C14.82 10.82 15 11.4 15 12C15 12.79 14.68 13.55 14.12 14.12C13.55 14.68 12.79 15 12 15Z" fill="#FFFFFF" fill-opacity="1.000000" fill-rule="evenodd"/>
	</g>
</svg>
