<svg width="16.000000" height="16.000000" viewBox="0 0 16 16" fill="none" xmlns="http://www.w3.org/2000/svg" xmlns:xlink="http://www.w3.org/1999/xlink">
	<desc>
			Created with Pixso.
	</desc>
	<defs>
		<clipPath id="clip17_1363">
			<rect id="Search" width="16.000000" height="16.000000" fill="white" fill-opacity="0"/>
		</clipPath>
	</defs>
	<rect id="Search" width="16.000000" height="16.000000" fill="#FFFFFF" fill-opacity="1.000000"/>
	<g clip-path="url(#clip17_1363)">
		<path id="Vector" d="M14.5 13.79L10.72 10.01C11.63 8.92 12.08 7.53 11.98 6.11C11.89 4.7 11.25 3.37 10.2 2.42C9.15 1.46 7.78 0.95 6.36 0.98C4.94 1.01 3.59 1.59 2.59 2.59C1.59 3.59 1.01 4.94 0.98 6.36C0.95 7.78 1.46 9.15 2.42 10.2C3.37 11.25 4.7 11.89 6.11 11.98C7.53 12.08 8.92 11.63 10.01 10.72L13.79 14.5L14.5 13.79ZM2 6.5C2 5.6 2.26 4.73 2.75 3.99C3.25 3.25 3.95 2.68 4.77 2.34C5.6 2 6.5 1.91 7.37 2.08C8.25 2.26 9.05 2.68 9.68 3.31C10.31 3.94 10.73 4.74 10.91 5.62C11.08 6.49 10.99 7.39 10.65 8.22C10.31 9.04 9.74 9.74 9 10.24C8.26 10.73 7.39 11 6.5 11C5.3 10.99 4.16 10.52 3.31 9.68C2.47 8.83 2 7.69 2 6.5Z" fill="#2A254B" fill-opacity="1.000000" fill-rule="evenodd"/>
	</g>
</svg>
