<svg width="24.000000" height="24.000000" viewBox="0 0 24 24" fill="none" xmlns="http://www.w3.org/2000/svg" xmlns:xlink="http://www.w3.org/1999/xlink">
	<desc>
			Created with Pixso.
	</desc>
	<defs>
		<clipPath id="clip22_1475">
			<rect id="Logo--pinterest" width="24.000000" height="24.000000" fill="white" fill-opacity="0"/>
		</clipPath>
	</defs>
	<rect id="Logo--pinterest" width="24.000000" height="24.000000" fill="rgb(42, 37, 75)" fill-opacity="1.000000"/>
	<g clip-path="url(#clip22_1475)">
		<path id="Vector" d="M12 1.5C9.56 1.51 7.21 2.37 5.34 3.93C3.47 5.49 2.2 7.65 1.75 10.05C1.3 12.44 1.69 14.91 2.86 17.05C4.03 19.18 5.91 20.84 8.17 21.75C8.02 20.75 8.02 19.74 8.17 18.75L9.41 13.5C9.21 13.02 9.11 12.51 9.12 12C9.12 10.54 9.97 9.44 11.02 9.44C11.21 9.44 11.4 9.48 11.57 9.56C11.75 9.63 11.9 9.75 12.03 9.89C12.15 10.03 12.25 10.2 12.3 10.38C12.36 10.56 12.37 10.76 12.35 10.95C12.35 11.85 11.78 13.2 11.48 14.44C11.41 14.67 11.41 14.92 11.46 15.15C11.51 15.39 11.61 15.61 11.76 15.79C11.92 15.98 12.11 16.13 12.33 16.22C12.56 16.32 12.8 16.36 13.04 16.34C14.9 16.34 16.34 14.37 16.34 11.53C16.36 10.95 16.25 10.38 16.04 9.85C15.82 9.31 15.5 8.83 15.09 8.42C14.67 8.02 14.18 7.71 13.64 7.51C13.1 7.31 12.53 7.22 11.95 7.26C11.34 7.23 10.72 7.33 10.15 7.54C9.57 7.76 9.05 8.09 8.6 8.52C8.16 8.95 7.81 9.46 7.57 10.02C7.33 10.59 7.21 11.2 7.21 11.82C7.2 12.67 7.46 13.51 7.96 14.21C8 14.25 8.02 14.3 8.03 14.35C8.05 14.4 8.05 14.46 8.04 14.51C7.95 14.84 7.77 15.56 7.74 15.7C7.71 15.84 7.59 15.93 7.39 15.84C6.08 15.23 5.26 13.32 5.26 11.77C5.26 8.46 7.67 5.42 12.2 5.42C15.84 5.42 18.67 8.01 18.67 11.49C18.67 15.1 16.42 18.01 13.22 18.01C12.75 18.03 12.28 17.93 11.86 17.72C11.44 17.51 11.08 17.19 10.81 16.81L10.16 19.31C9.84 20.28 9.41 21.2 8.85 22.06C9.87 22.36 10.93 22.51 12 22.5C14.78 22.5 17.45 21.39 19.42 19.42C21.39 17.45 22.5 14.78 22.5 12C22.5 9.21 21.39 6.54 19.42 4.57C17.45 2.6 14.78 1.5 12 1.5Z" fill="#FFFFFF" fill-opacity="1.000000" fill-rule="nonzero"/>
	</g>
</svg>
