<svg width="16.000000" height="16.000000" viewBox="0 0 16 16" fill="none" xmlns="http://www.w3.org/2000/svg" xmlns:xlink="http://www.w3.org/1999/xlink">
	<desc>
			Created with Pixso.
	</desc>
	<defs>
		<clipPath id="clip17_1365">
			<rect id="Shopping--cart" width="16.000000" height="16.000000" fill="white" fill-opacity="0"/>
		</clipPath>
	</defs>
	<rect id="Shopping--cart" width="16.000000" height="16.000000" fill="#FFFFFF" fill-opacity="1.000000"/>
	<g clip-path="url(#clip17_1365)">
		<path id="Vector" d="M2.91 3.5L14 3.5C14.07 3.49 14.15 3.51 14.22 3.54C14.28 3.57 14.35 3.62 14.39 3.68C14.44 3.74 14.48 3.81 14.49 3.88C14.51 3.95 14.51 4.03 14.5 4.11L13.5 8.61C13.47 8.72 13.41 8.82 13.31 8.89C13.22 8.96 13.11 9 13 9L4 9L4.41 11L13 11L13 12L4 12C3.88 12 3.76 11.96 3.67 11.89C3.58 11.81 3.52 11.71 3.5 11.6L1.58 2L0 2L0 1L2 1C2.11 0.99 2.23 1.03 2.32 1.1C2.41 1.18 2.47 1.28 2.5 1.4L2.91 3.5ZM3.81 8L12.6 8L13.37 4.5L3.1 4.5L3.81 8ZM5 15C5.55 15 6 14.55 6 14C6 13.44 5.55 13 5 13C4.44 13 4 13.44 4 14C4 14.55 4.44 15 5 15ZM12 15C12.55 15 13 14.55 13 14C13 13.44 12.55 13 12 13C11.44 13 11 13.44 11 14C11 14.55 11.44 15 12 15Z" fill="#2A254B" fill-opacity="1.000000" fill-rule="evenodd"/>
	</g>
</svg>
