<svg width="24.000000" height="24.000000" viewBox="0 0 24 24" fill="none" xmlns="http://www.w3.org/2000/svg" xmlns:xlink="http://www.w3.org/1999/xlink">
	<desc>
			Created with Pixso.
	</desc>
	<defs>
		<clipPath id="clip22_1471">
			<rect id="Logo--skype" width="24.000000" height="24.000000" fill="white" fill-opacity="0"/>
		</clipPath>
	</defs>
	<rect id="Logo--skype" width="24.000000" height="24.000000" fill="rgb(42, 37, 75)" fill-opacity="1.000000"/>
	<g clip-path="url(#clip22_1471)">
		<path id="Vector" d="M20.93 13.41C21 12.94 21.04 12.47 21.04 12C21.04 9.6 20.09 7.3 18.39 5.6C16.69 3.9 14.39 2.95 12 2.95C11.52 2.95 11.05 2.99 10.59 3.06C9.54 2.44 8.31 2.18 7.11 2.33C5.9 2.48 4.77 3.03 3.91 3.89C3.05 4.75 2.5 5.87 2.35 7.08C2.2 8.29 2.46 9.52 3.08 10.56C3 11.04 2.96 11.51 2.95 12C2.95 14.39 3.9 16.69 5.6 18.39C7.3 20.09 9.6 21.04 12 21.04C12.47 21.04 12.94 21 13.41 20.93C14.45 21.55 15.68 21.81 16.88 21.66C18.09 21.51 19.22 20.97 20.08 20.1C20.94 19.24 21.49 18.12 21.64 16.91C21.79 15.7 21.53 14.47 20.91 13.43L20.93 13.41ZM16.29 16.11C15.87 16.69 15.29 17.14 14.61 17.4C13.78 17.73 12.89 17.89 12 17.87C10.96 17.91 9.93 17.7 9 17.25C8.45 16.95 7.98 16.53 7.63 16.02C7.31 15.59 7.13 15.06 7.1 14.52C7.1 14.38 7.13 14.24 7.19 14.11C7.24 13.99 7.32 13.87 7.43 13.77C7.65 13.58 7.95 13.48 8.25 13.5C8.49 13.49 8.74 13.58 8.93 13.74C9.14 13.93 9.3 14.17 9.4 14.44C9.53 14.75 9.7 15.05 9.9 15.33C10.09 15.58 10.35 15.78 10.65 15.91C11.04 16.08 11.48 16.16 11.91 16.14C12.53 16.17 13.14 16.01 13.67 15.68C13.87 15.56 14.04 15.39 14.15 15.19C14.27 14.99 14.33 14.76 14.34 14.53C14.34 14.37 14.31 14.21 14.25 14.05C14.19 13.9 14.1 13.77 13.98 13.65C13.72 13.41 13.39 13.23 13.05 13.13C12.66 13 12.14 12.87 11.49 12.73C10.74 12.56 10 12.31 9.3 12C8.75 11.77 8.26 11.41 7.89 10.95C7.53 10.47 7.34 9.88 7.36 9.29C7.35 8.68 7.55 8.09 7.92 7.61C8.33 7.09 8.89 6.7 9.52 6.48C10.32 6.22 11.16 6.1 12 6.12C12.65 6.11 13.31 6.2 13.94 6.39C14.43 6.53 14.9 6.77 15.31 7.08C15.64 7.32 15.91 7.63 16.11 7.98C16.27 8.27 16.35 8.59 16.36 8.92C16.36 9.06 16.33 9.2 16.27 9.33C16.22 9.46 16.14 9.57 16.04 9.67C15.94 9.78 15.81 9.87 15.67 9.93C15.53 9.99 15.39 10.02 15.24 10.02C14.99 10.03 14.75 9.96 14.57 9.81C14.37 9.62 14.21 9.4 14.08 9.15C13.89 8.77 13.63 8.43 13.29 8.17C12.86 7.9 12.34 7.78 11.83 7.83C11.3 7.8 10.78 7.93 10.33 8.2C10.17 8.29 10.03 8.42 9.93 8.58C9.83 8.73 9.77 8.91 9.76 9.1C9.75 9.3 9.82 9.5 9.95 9.66C10.1 9.84 10.28 9.98 10.49 10.08C10.71 10.19 10.94 10.28 11.18 10.35C11.42 10.41 11.81 10.51 12.36 10.64C13.05 10.79 13.66 10.95 14.22 11.13C14.73 11.29 15.21 11.51 15.65 11.79C16.03 12.04 16.35 12.37 16.57 12.78C16.79 13.23 16.9 13.74 16.87 14.25C16.88 14.91 16.67 15.56 16.29 16.11Z" fill="#FFFFFF" fill-opacity="1.000000" fill-rule="nonzero"/>
	</g>
</svg>
