<svg width="24.000000" height="24.000000" viewBox="0 0 24 24" fill="none" xmlns="http://www.w3.org/2000/svg" xmlns:xlink="http://www.w3.org/1999/xlink">
	<desc>
			Created with Pixso.
	</desc>
	<defs>
		<clipPath id="clip22_1210">
			<rect id="Sprout" width="24.000000" height="24.000000" fill="white" fill-opacity="0"/>
		</clipPath>
	</defs>
	<rect id="Sprout" width="24.000000" height="24.000000" fill="rgb(249, 249, 249)" fill-opacity="1.000000"/>
	<g clip-path="url(#clip22_1210)">
		<path id="Vector" d="M18.75 1.5C17.08 1.5 15.46 2 14.09 2.94C12.72 3.88 11.66 5.21 11.06 6.76C10.58 6.06 9.93 5.49 9.18 5.1C8.43 4.7 7.59 4.5 6.75 4.5L4.5 4.5L4.5 6.75C4.5 8.14 5.05 9.47 6.03 10.46C7.02 11.44 8.35 11.99 9.75 12L10.5 12L10.5 18.78C8.77 18.95 7.16 19.71 5.94 20.94L7 22C7.63 21.37 8.39 20.89 9.22 20.6C10.06 20.3 10.95 20.19 11.83 20.27C12.72 20.36 13.57 20.64 14.33 21.1C15.09 21.56 15.74 22.17 16.23 22.91L17.48 22.08C16.87 21.16 16.05 20.39 15.11 19.82C14.16 19.25 13.1 18.9 12 18.79L12 12L12.75 12C14.93 11.99 17.03 11.12 18.58 9.58C20.12 8.03 20.99 5.93 21 3.75L21 1.5L18.75 1.5ZM9.75 10.5C8.75 10.49 7.8 10.1 7.09 9.4C6.39 8.69 6 7.74 6 6.75L6 6L6.75 6C7.74 6 8.69 6.39 9.4 7.09C10.1 7.8 10.49 8.75 10.5 9.75L10.5 10.5L9.75 10.5ZM19.5 3.75C19.49 5.53 18.78 7.25 17.52 8.52C16.25 9.78 14.53 10.49 12.75 10.5L12 10.5L12 9.75C12 7.96 12.71 6.24 13.97 4.97C15.24 3.71 16.96 3 18.75 3L19.5 3L19.5 3.75Z" fill="#2A254B" fill-opacity="1.000000" fill-rule="nonzero"/>
	</g>
</svg>
