<svg width="16.000000" height="16.000000" viewBox="0 0 16 16" fill="none" xmlns="http://www.w3.org/2000/svg" xmlns:xlink="http://www.w3.org/1999/xlink">
	<desc>
			Created with Pixso.
	</desc>
	<defs>
		<clipPath id="clip17_1408">
			<rect id="Delivery" width="16.000000" height="16.000000" fill="white" fill-opacity="0"/>
		</clipPath>
	</defs>
	<rect id="Delivery" width="16.000000" height="16.000000" fill="rgb(42, 37, 75)" fill-opacity="1.000000"/>
	<g clip-path="url(#clip17_1408)">
		<path id="Vector" d="M13.45 4.8L14.95 8.3C14.98 8.36 15 8.43 15 8.5L15 12C15 12.13 14.94 12.25 14.85 12.35C14.75 12.44 14.63 12.5 14.5 12.5L13.42 12.5C13.31 12.92 13.07 13.3 12.72 13.58C12.37 13.85 11.94 13.99 11.5 13.99C11.05 13.99 10.62 13.85 10.27 13.58C9.92 13.3 9.68 12.92 9.57 12.5L6.42 12.5C6.3 12.97 6.01 13.38 5.61 13.65C5.21 13.92 4.72 14.04 4.24 13.98C3.75 13.92 3.31 13.68 2.99 13.32C2.67 12.95 2.49 12.48 2.49 12C2.49 11.51 2.67 11.04 2.99 10.67C3.31 10.31 3.75 10.07 4.24 10.01C4.72 9.95 5.21 10.07 5.61 10.34C6.01 10.61 6.3 11.02 6.42 11.5L9.57 11.5C9.63 11.24 9.75 11 9.91 10.79C10.07 10.58 10.27 10.41 10.5 10.27L10.5 4L3 4L3 3L11 3C11.13 3 11.25 3.05 11.35 3.14C11.44 3.24 11.5 3.36 11.5 3.5L11.5 4.5L13 4.5C13.09 4.49 13.19 4.52 13.27 4.58C13.35 4.63 13.42 4.71 13.45 4.8ZM6 5.5L1 5.5L1 6.5L6 6.5L6 5.5ZM12.67 5.5L11.5 5.5L11.5 8L13.74 8L12.67 5.5ZM8 8L2 8L2 9L8 9L8 8ZM13.42 11.5L14 11.5L14 9L11.5 9L11.5 10C11.94 10 12.37 10.14 12.72 10.42C13.06 10.69 13.31 11.07 13.42 11.5ZM3.94 12.83C4.1 12.94 4.3 13 4.5 13C4.76 12.99 5.01 12.89 5.2 12.7C5.39 12.51 5.49 12.26 5.5 12C5.5 11.8 5.44 11.6 5.33 11.44C5.22 11.28 5.06 11.15 4.88 11.07C4.69 11 4.49 10.98 4.3 11.01C4.11 11.05 3.93 11.15 3.79 11.29C3.65 11.43 3.55 11.61 3.51 11.8C3.48 11.99 3.5 12.2 3.57 12.38C3.65 12.56 3.78 12.72 3.94 12.83ZM10.94 12.83C11.1 12.94 11.3 13 11.5 13C11.76 12.99 12.01 12.89 12.2 12.7C12.39 12.51 12.49 12.26 12.5 12C12.5 11.8 12.44 11.6 12.33 11.44C12.22 11.28 12.06 11.15 11.88 11.07C11.7 11 11.49 10.98 11.3 11.01C11.11 11.05 10.93 11.15 10.79 11.29C10.65 11.43 10.55 11.61 10.51 11.8C10.48 11.99 10.5 12.2 10.57 12.38C10.65 12.56 10.78 12.72 10.94 12.83Z" fill="#FFFFFF" fill-opacity="1.000000" fill-rule="evenodd"/>
	</g>
</svg>
