<svg width="24.000000" height="24.000000" viewBox="0 0 24 24" fill="none" xmlns="http://www.w3.org/2000/svg" xmlns:xlink="http://www.w3.org/1999/xlink">
	<desc>
			Created with Pixso.
	</desc>
	<defs>
		<clipPath id="clip22_1192">
			<rect id="Delivery" width="24.000000" height="24.000000" fill="white" fill-opacity="0"/>
		</clipPath>
	</defs>
	<rect id="Delivery" width="24.000000" height="24.000000" fill="rgb(249, 249, 249)" fill-opacity="1.000000"/>
	<g clip-path="url(#clip22_1192)">
		<path id="Vector" d="M20.18 7.2L22.43 12.45C22.47 12.54 22.5 12.64 22.5 12.75L22.5 18C22.5 18.19 22.42 18.38 22.28 18.53C22.13 18.67 21.94 18.75 21.75 18.75L20.14 18.75C19.97 19.39 19.6 19.96 19.08 20.37C18.55 20.77 17.91 20.99 17.25 20.99C16.58 20.99 15.94 20.77 15.41 20.37C14.89 19.96 14.52 19.39 14.35 18.75L9.64 18.75C9.46 19.45 9.02 20.07 8.42 20.48C7.81 20.89 7.08 21.06 6.36 20.97C5.63 20.88 4.97 20.53 4.48 19.98C4 19.43 3.73 18.73 3.73 18C3.73 17.26 4 16.56 4.48 16.01C4.97 15.46 5.63 15.11 6.36 15.02C7.08 14.93 7.81 15.1 8.42 15.51C9.02 15.92 9.46 16.54 9.64 17.25L14.35 17.25C14.45 16.86 14.63 16.5 14.87 16.19C15.1 15.87 15.4 15.61 15.75 15.41L15.75 6L4.5 6L4.5 4.5L16.5 4.5C16.69 4.5 16.88 4.57 17.03 4.71C17.17 4.86 17.25 5.05 17.25 5.25L17.25 6.75L19.5 6.75C19.64 6.74 19.79 6.79 19.91 6.87C20.03 6.95 20.13 7.06 20.18 7.2ZM9 8.25L1.5 8.25L1.5 9.75L9 9.75L9 8.25ZM19 8.25L17.25 8.25L17.25 12L20.61 12L19 8.25ZM12 12L3 12L3 13.5L12 13.5L12 12ZM20.14 17.25L21 17.25L21 13.5L17.25 13.5L17.25 15C17.91 15 18.55 15.22 19.08 15.63C19.6 16.03 19.97 16.6 20.14 17.25ZM5.91 19.24C6.16 19.41 6.45 19.5 6.75 19.5C7.14 19.49 7.52 19.34 7.81 19.06C8.09 18.77 8.24 18.39 8.25 18C8.25 17.7 8.16 17.41 7.99 17.16C7.83 16.91 7.59 16.72 7.32 16.61C7.04 16.5 6.74 16.47 6.45 16.52C6.16 16.58 5.89 16.72 5.68 16.93C5.47 17.14 5.33 17.41 5.27 17.7C5.22 17.99 5.25 18.29 5.36 18.57C5.47 18.84 5.66 19.08 5.91 19.24ZM16.41 19.24C16.66 19.41 16.95 19.5 17.25 19.5C17.64 19.49 18.02 19.34 18.31 19.06C18.59 18.77 18.74 18.39 18.75 18C18.75 17.7 18.66 17.41 18.49 17.16C18.33 16.91 18.09 16.72 17.82 16.61C17.54 16.5 17.24 16.47 16.95 16.52C16.66 16.58 16.39 16.72 16.18 16.93C15.97 17.14 15.83 17.41 15.77 17.7C15.72 17.99 15.75 18.29 15.86 18.57C15.97 18.84 16.16 19.08 16.41 19.24Z" fill="#2A254B" fill-opacity="1.000000" fill-rule="evenodd"/>
	</g>
</svg>
