<svg width="24.000000" height="24.000000" viewBox="0 0 24 24" fill="none" xmlns="http://www.w3.org/2000/svg" xmlns:xlink="http://www.w3.org/1999/xlink">
	<desc>
			Created with Pixso.
	</desc>
	<defs>
		<clipPath id="clip22_1473">
			<rect id="Logo--twitter" width="24.000000" height="24.000000" fill="white" fill-opacity="0"/>
		</clipPath>
	</defs>
	<rect id="Logo--twitter" width="24.000000" height="24.000000" fill="rgb(42, 37, 75)" fill-opacity="1.000000"/>
	<g clip-path="url(#clip22_1473)">
		<path id="Vector" d="M8.93 18.7C10.2 18.71 11.46 18.46 12.63 17.98C13.8 17.5 14.87 16.79 15.76 15.9C16.66 15 17.37 13.94 17.85 12.76C18.33 11.59 18.57 10.34 18.56 9.07C18.56 8.92 18.56 8.78 18.56 8.63C19.22 8.15 19.79 7.56 20.25 6.88C19.63 7.15 18.97 7.33 18.3 7.41C19.01 6.99 19.55 6.32 19.8 5.54C19.14 5.93 18.41 6.21 17.66 6.36C17.15 5.82 16.47 5.46 15.74 5.34C15 5.22 14.25 5.34 13.59 5.69C12.93 6.04 12.41 6.6 12.1 7.28C11.79 7.96 11.71 8.72 11.88 9.44C10.54 9.38 9.22 9.03 8.02 8.42C6.82 7.81 5.76 6.96 4.91 5.91C4.48 6.66 4.35 7.53 4.54 8.37C4.74 9.21 5.24 9.94 5.96 10.41C5.43 10.39 4.92 10.25 4.46 9.99L4.46 10.03C4.45 10.81 4.71 11.56 5.2 12.17C5.68 12.78 6.36 13.2 7.12 13.37C6.63 13.5 6.12 13.52 5.62 13.43C5.84 14.09 6.26 14.67 6.82 15.08C7.38 15.5 8.06 15.73 8.76 15.75C7.56 16.71 6.08 17.23 4.55 17.25C4.28 17.24 4.01 17.21 3.75 17.18C5.3 18.17 7.1 18.69 8.93 18.68L8.93 18.7Z" fill="#FFFFFF" fill-opacity="1.000000" fill-rule="nonzero"/>
	</g>
</svg>
