<svg width="16.000000" height="16.000000" viewBox="0 0 16 16" fill="none" xmlns="http://www.w3.org/2000/svg" xmlns:xlink="http://www.w3.org/1999/xlink">
	<desc>
			Created with Pixso.
	</desc>
	<defs>
		<clipPath id="clip17_1367">
			<rect id="User--avatar" width="16.000000" height="16.000000" fill="white" fill-opacity="0"/>
		</clipPath>
	</defs>
	<rect id="User--avatar" width="16.000000" height="16.000000" fill="#FFFFFF" fill-opacity="1.000000"/>
	<g clip-path="url(#clip17_1367)">
		<path id="Vector" d="M4.11 2.17C5.26 1.41 6.61 1 8 1C9.85 1 11.63 1.74 12.94 3.05C14.25 4.36 14.99 6.14 15 8C15 9.38 14.58 10.73 13.82 11.88C13.05 13.04 11.95 13.93 10.67 14.46C9.39 14.99 7.99 15.13 6.63 14.86C5.27 14.59 4.02 13.92 3.05 12.94C2.07 11.97 1.4 10.72 1.13 9.36C0.86 8 1 6.6 1.53 5.32C2.06 4.04 2.95 2.94 4.11 2.17ZM11.25 10.72C11.71 11.18 11.98 11.8 11.99 12.46C12.9 11.65 13.54 10.58 13.82 9.4C14.11 8.22 14.03 6.98 13.6 5.84C13.17 4.71 12.4 3.73 11.4 3.04C10.4 2.35 9.21 1.98 8 1.98C6.78 1.98 5.59 2.35 4.59 3.04C3.59 3.73 2.82 4.71 2.39 5.84C1.96 6.98 1.88 8.22 2.17 9.4C2.45 10.58 3.09 11.65 4 12.46C4.01 11.8 4.28 11.18 4.74 10.72C5.21 10.25 5.84 10 6.5 10L9.5 10C10.15 10 10.78 10.25 11.25 10.72ZM6.61 4.42C7.02 4.14 7.5 4 8 4C8.66 4 9.29 4.26 9.76 4.73C10.23 5.2 10.5 5.83 10.5 6.5C10.5 6.99 10.35 7.47 10.07 7.88C9.8 8.3 9.41 8.62 8.95 8.8C8.49 8.99 7.99 9.04 7.51 8.95C7.02 8.85 6.58 8.61 6.23 8.26C5.88 7.91 5.64 7.47 5.54 6.98C5.45 6.5 5.5 6 5.69 5.54C5.87 5.08 6.19 4.69 6.61 4.42ZM7.16 7.74C7.41 7.91 7.7 8 8 8C8.39 7.99 8.77 7.84 9.06 7.56C9.34 7.27 9.49 6.89 9.5 6.5C9.5 6.2 9.41 5.91 9.24 5.66C9.08 5.41 8.84 5.22 8.57 5.11C8.29 5 7.99 4.97 7.7 5.02C7.41 5.08 7.14 5.22 6.93 5.43C6.72 5.64 6.58 5.91 6.52 6.2C6.47 6.49 6.5 6.79 6.61 7.07C6.72 7.34 6.91 7.58 7.16 7.74ZM5 12.5L5 13.18C5.91 13.71 6.94 14 8 14C9.05 14 10.08 13.71 11 13.18L11 12.5C10.99 12.1 10.84 11.72 10.56 11.43C10.27 11.15 9.89 11 9.5 11L6.5 11C6.1 11 5.72 11.15 5.43 11.43C5.15 11.72 5 12.1 5 12.5Z" fill="#2A254B" fill-opacity="1.000000" fill-rule="evenodd"/>
	</g>
</svg>
